<?xml version="1.0" encoding="utf-8"?>
<!-- Generator: Adobe Illustrator 27.7.0, SVG Export Plug-In . SVG Version: 6.00 Build 0)  -->
<svg version="1.1" id="main" xmlns="http://www.w3.org/2000/svg" xmlns:xlink="http://www.w3.org/1999/xlink" x="0px" y="0px"
	 viewBox="0 0 595 64" style="enable-background:new 0 0 595 64;" xml:space="preserve">
<g>
	<g>
		<path d="M38.8,64l-1.6-3.9H21.2L19.6,64H0L29,0h0.3l29,63.9H38.8z M29.2,36L23,50.6h12.3L29.2,36z"/>
		<g>
			<path d="M82.7,3.8v18.1c6,0,10.9,5.4,10.9,12c0,6.6-4.9,12-10.9,12V64c17.3,0,31.4-13.4,31.4-30.1C114.1,17.3,100,3.8,82.7,3.8z"
				/>
			<g>
				<path d="M55.8,62.3c3.7-0.3,5.2-0.8,6.3-1.7c1.1-0.8,1.6-3,1.6-6.5V13.7c0-3.3-0.5-5.5-1.6-6.5c-1.1-1-2.6-1.5-6.3-1.7V3.8H81
					v1.7c-3.7,0.2-5.2,0.7-6.3,1.7c-1.1,1-1.6,3.1-1.6,6.5v40.5c0,3.5,0.5,5.7,1.6,6.5c1.1,0.8,2.6,1.4,6.3,1.7V64H55.8V62.3z"/>
			</g>
		</g>
		<path d="M148.1,64l-1.6-3.9h-15.9l-1.6,3.9h-19.6l29-63.9h0.3l29,63.9H148.1z M138.5,36l-6.1,14.6h12.3L138.5,36z"/>
	</g>
	<g>
		<g>
			<path d="M203.9,32.7c-0.7,4.5-4.7,12.2-12.9,15.7c-1.5,0.6-2.2-0.9-0.8-1.8c6.8-4.4,10.2-11,10.2-14c0-1.4-1.9-1.7-1.9-2.5
				c0-0.6,1-1.2,2-1.2c1,0,2.6,0.6,3.3,1.3c2.2-1.5,4.1-3.1,5.7-5.1c0.7-0.8,0.7-1.1-0.3-1.1c-1.1,0-7.7,1.3-10.6,1.9
				c-4,0.8-6.2,1.6-7.6,1.6c-1.6,0-3.7-2.2-3.8-4.6c0-0.8,0.8-1,1.2-0.6c1.3,0.9,1.9,1.7,3.4,1.7c1.9,0,13.3-1.6,15.5-2
				c1.9-0.3,2.8-0.9,3.8-0.9c1.5,0,4.2,2.4,4.2,3.8c0,1.1-1.9,1.4-3.1,2.4c-2.1,1.5-5,3.7-8.4,5.3L203.9,32.7z"/>
			<path d="M223.1,28.1c2.7,0.4,5,1.3,6.8,3.1c1.2,1.3,1.3,2.9,0.4,3.6s-1.8,0.3-3-1c-1-1.1-2.9-2.8-4.9-4.5
				C221.8,28.8,222.2,28,223.1,28.1z M226.3,43.4c1,0.5,2,0.6,3.1,0c7.5-3.4,14.9-10.3,19.3-16c0.8-1,2.1,0,1.5,1
				c-3.7,6.3-11.2,13.3-18.5,17.5c-1.4,0.8-2.7,1.5-3.6,1.5c-2,0-4.9-2.3-5-4.7c0-0.8,0.4-1.1,1-0.8
				C224.7,42.5,225.7,43.1,226.3,43.4z M229,21.1c2.5,0.3,5.3,1.5,6.8,3.1c1.2,1.4,1.1,3.1,0.1,3.7c-0.7,0.5-1.7,0.3-3-1.3
				c-1.1-1.3-2.5-2.7-4.5-4.2C227.6,21.8,228.1,21,229,21.1z M248.9,23.5c0,1-0.7,1.5-1.4,1.5c-1,0-1.2-0.7-2.2-1.9
				c-0.7-0.8-1.7-1.7-2.5-2.5c-0.5-0.5-0.2-1.2,0.5-1.1C246,19.7,248.9,21.5,248.9,23.5z M252.5,19.5c0,0.9-0.5,1.5-1.4,1.5
				c-0.6,0-1-0.3-1.8-1.2c-0.9-1-2.2-2-3.1-2.6c-0.7-0.5-0.4-1.2,0.4-1.2C249.3,16,252.5,17.4,252.5,19.5z"/>
			<path d="M275.5,32.7c-0.7,4.5-4.7,12.2-12.9,15.7c-1.5,0.6-2.2-0.9-0.8-1.8c6.8-4.4,10.2-11,10.2-14c0-1.4-1.9-1.7-1.9-2.5
				c0-0.6,1-1.2,2-1.2c1,0,2.6,0.6,3.3,1.3c2.2-1.5,4.1-3.1,5.7-5.1c0.7-0.8,0.7-1.1-0.3-1.1c-1.1,0-7.7,1.3-10.6,1.9
				c-4,0.8-6.2,1.6-7.6,1.6c-1.6,0-3.7-2.2-3.8-4.6c0-0.8,0.8-1,1.2-0.6c1.3,0.9,1.9,1.7,3.4,1.7c1.9,0,13.3-1.6,15.5-2
				c1.9-0.3,2.8-0.9,3.8-0.9c1.5,0,4.2,2.4,4.2,3.8c0,1.1-1.9,1.4-3.1,2.4c-2.1,1.5-5,3.7-8.4,5.3L275.5,32.7z"/>
			<path d="M325.7,30.5c0,0.7-0.6,1.1-1.6,1.1c-0.9,0-2.1,0-3.4,0c-2.4,0-6.8,0.5-9.7,0.8c1.4,0.8,2,1.6,2,2.3
				c0,0.6-0.4,1.5-0.7,2.3c-1.5,3.7-4.6,9.4-11.4,12.7c-1.4,0.7-2.3-0.7-1-1.7c4.9-3.5,9.1-9.3,9.4-13c0.1-0.8,0-1.3-1-2.2
				c-4.2,0.8-8.9,2.1-10.6,2.1c-1.5,0-3.3-2.1-3.5-4c-0.1-0.6,0.4-1.1,1.1-0.7c1.1,0.6,2.1,1.4,3.5,1.4c2.4,0,12.6-1.7,15.9-2.3
				c3.8-0.7,6.1-1.2,7.2-1.2C323.6,28.2,325.7,29.1,325.7,30.5z M301,22.5c-0.4-0.8,0-1.3,0.8-1c1.5,0.6,2.4,1,3.7,1
				c4.8,0,7.7-2.1,9-2.1c1.1,0,2.9,0.6,2.9,1.6c0,0.7-0.8,1.4-2.1,1.7c-1.4,0.4-6.3,1.6-9.7,1.6C303.4,25.3,301.7,23.9,301,22.5z
				 M325.9,23.7c0,1-0.7,1.5-1.4,1.5c-1,0-1.2-0.7-2.2-1.9c-0.7-0.8-1.7-1.7-2.5-2.5c-0.5-0.5-0.2-1.2,0.5-1.1
				C323,19.8,325.9,21.7,325.9,23.7z M329.5,19.7c0,0.9-0.5,1.5-1.4,1.5c-0.6,0-1-0.3-1.8-1.2c-0.9-1-2.2-2-3.1-2.6
				c-0.7-0.5-0.4-1.2,0.4-1.2C326.3,16.1,329.5,17.5,329.5,19.7z"/>
			<path d="M366.3,29.1c0,0.8-0.5,1.2-1.2,1.2c-0.9,0-3-0.5-4.7-0.5c-1.1,0-2.8,0.1-4.6,0.3c-0.4,9.1-3.5,14.7-10.8,18.2
				c-1.7,0.8-2.5-0.6-1-1.7c6.1-4.2,8.3-8.2,8.8-16.2c-2,0.3-4.5,0.7-6.6,1.1c0,3.1,0,5.8-0.2,6.6c-0.1,1.2-0.5,2.3-1.4,2.3
				c-1,0-1.8-1.1-1.8-2.8c0-1.1,0.6-2.3,0.7-5.6c-4.4,0.8-6.6,1.6-8.1,1.6c-1.5,0-3.4-2.1-3.5-4.1c0-0.7,0.3-1,1.1-0.6
				c1.1,0.6,2.4,1.3,3.6,1.3c1.2,0,4.2-0.4,6.9-0.8c-0.1-1.9-0.2-3.2-0.5-4.1c-0.2-0.8-0.3-1.1-1.4-1.7c-1-0.6-1.5-0.7-1.5-1.2
				c0-0.6,1.4-1.1,2.2-1.1c1.7,0,3.4,1,3.6,1.9c0.2,0.8,0.2,3.1,0.2,5.7c2-0.3,4.6-0.8,6.7-1.1c0-2.1-0.2-4.3-0.3-5.4
				c-0.2-1.3-0.4-1.7-1.2-2.2c-0.8-0.4-1.6-0.7-1.6-1.3c0-0.7,1.6-1,2.3-1c2,0,3.7,1.2,3.8,2.2c0.1,0.6-0.1,1.5-0.1,3.1
				c0,1,0,2.5,0,4.2c4.1-0.6,5.3-1.1,6.5-1.1C363.7,26.4,366.3,27.6,366.3,29.1z M359,20.2c-0.5-0.5-0.2-1.2,0.5-1.1
				c2.7,0.2,5.6,2.1,5.6,4.1c0,1-0.7,1.5-1.4,1.5c-1,0-1.2-0.7-2.2-1.9C360.7,21.9,359.8,21,359,20.2z M368.6,19.1
				c0,0.9-0.5,1.5-1.4,1.5c-0.6,0-1-0.3-1.8-1.2c-0.9-1-2.2-2-3.1-2.6c-0.7-0.5-0.4-1.2,0.4-1.2C365.4,15.5,368.6,16.9,368.6,19.1z"
				/>
			<path d="M392.6,24.7c-1.3,1.7-3,3.8-5.1,6c0.2,0.1,0.4,0.3,0.5,0.4c0.7,0.6,0.9,1.2,1,2.5c0.3,3.5,0.2,9.7,0,12.9
				c-0.1,1.3-1,2-1.9,2c-1.2,0-1.9-1.6-1.9-3c0-0.9,0.3-1.7,0.5-2.8c0.4-2.3,0.5-7,0.3-8.7c0-0.5-0.2-0.8-0.5-1.3
				c-4.3,4.1-9.4,7.9-13.9,10c-1.6,0.8-2.4-0.8-1-1.7c7.7-4.9,15.9-12.3,18.5-17.3c0.8-1.4,0.7-2-0.7-3.6c-0.7-0.8-0.5-1.3,0.5-1.3
				c2.2,0,4.9,2.1,4.9,3.5C393.9,23,393.2,23.9,392.6,24.7z"/>
			<path d="M409.8,41.7c1,0.5,2.1,0.6,3.5-0.1c7-3.1,14-9.3,18.6-14.3c0.8-0.9,2.1,0.1,1.5,1.1c-3.5,5.4-10.5,11.7-18.2,16
				c-1.4,0.8-2.5,1.5-3.6,1.5c-2,0-4.7-2.4-5-4.7c-0.1-0.8,0.4-1.1,1-0.8C408.2,40.7,409.2,41.4,409.8,41.7z M408.4,23.1
				c3.1,0.5,5.7,2.1,7.1,3.9c1.2,1.4,1.3,3.7,0,4.2c-1,0.4-1.8,0.1-3.3-1.9c-1.2-1.7-2.7-3.1-4.6-4.7
				C406.7,23.9,407.2,22.9,408.4,23.1z"/>
			<path d="M470,39.4c0.8-1.1,1.8-2.4,2.3-2.4c0.8,0,3.4,2.3,3.4,3.2c0,0.5-0.6,0.8-2.1,0.8H466l0,6.7c0,2.1-1.5,2.8-3,2.8
				c-1.4,0-0.9-1.3-3.8-2c-1-0.3-0.8-1.4,0-1.4c0.9,0.1,2.3,0.3,2.9,0.3c0.8,0,1.1-0.3,1.1-1.1c0-1.1,0-3.3,0-5.3h-22.3
				c-0.5,0-0.9-0.2-0.9-0.8c0-0.6,0.4-0.8,0.9-0.8h22.2c0-1-0.1-1.9-0.1-2.5c0-0.5,0.2-0.6,0.6-0.6c1.6,0,3.7,0.2,3.7,1
				c0,0.6-0.7,0.8-1.3,1v1.1H470z M441.7,20.7c-0.5,0-0.9-0.2-0.9-0.8c0-0.6,0.4-0.8,0.9-0.8h14.7c0-1.7-0.1-3-0.2-3.8
				c0-0.4,0.2-0.6,0.6-0.6c0.7,0,4.6,0.1,4.6,1.1c0,0.9-0.9,1.2-2.1,1.5v1.8h10.1c0.8-1.1,1.7-2.4,2.3-2.4c0.8,0,3.4,2.3,3.5,3.2
				c0,0.5-0.6,0.8-2.1,0.8h-13.8v3.2h7.4c0.6-0.8,1.3-1.7,1.8-1.7c0.8,0,3.1,1.7,3.1,2.6c0,0.5-0.6,0.9-1.3,1.1
				c-0.1,2.6,0,8.1,0,9.5c0,1.2-0.6,1.5-1.7,1.5c-0.9,0-1.1-0.7-1.2-1.3H449v1c0,0.9-0.6,1.2-1.8,1.2c-0.7,0-1.1-0.4-1.1-1.1
				c0-2.7,0.2-10.3-0.2-14c0-0.3,0.2-0.6,0.6-0.5c0.7,0.1,2.6,0.8,3.5,1.5h6.5c0-1.1,0-2.2,0-3.2H441.7z M449.1,25.5
				c0,0.7-0.1,2.1-0.1,3.3h7.5v-3.3H449.1z M449,34.1h7.5c0-1.1,0-2.3,0-3.7H449v0.2L449,34.1z M455.3,46c0.1,1.1-0.6,1.9-1.7,2
				c-1.1,0.1-1.6-0.8-2.4-2.1c-0.6-0.9-1.2-1.8-1.9-2.6c-0.6-0.7-0.2-1.4,0.8-1.2C452.5,42.5,455.1,44,455.3,46z M459.2,25.5v3.3
				h8.2c0-1.3,0-2.5,0-3.3H459.2z M459.2,34.1h8.1l0-3.7h-8.1V34.1z"/>
			<path d="M491.8,17.4c0.6-0.8,1.3-1.6,1.7-1.6c0.8,0,3,1.7,3,2.5c0,0.5-0.6,0.9-1.3,1.1c-0.1,2.9,0,10.5,0,12
				c0,1.2-0.6,1.5-1.6,1.5c-0.9,0-1.2-0.7-1.2-1.3v-1.1h-8.6v2.1c0,1.6,0.1,15,0.1,16.6c0,0.9-0.6,1.4-1.8,1.4
				c-0.8,0-1.1-0.4-1.1-1.2c0-5,0.5-27.1-0.2-33.1c0-0.2,0.2-0.6,0.6-0.6c0.5,0,3,0.9,3.8,1.7H491.8z M492.5,28.9v-4.4h-8.6
				c0,1.5,0,3,0,4.4H492.5z M492.5,22.9c0-1.6,0-3,0-4H484c-0.1,0.9-0.1,2.3-0.1,4H492.5z M509.7,17.4c0.7-0.8,1.5-1.9,1.8-1.9
				c1,0,3.6,2.3,3.6,3c0,0.5-0.8,1-1.7,1.3c-0.2,6.8-0.2,18.2-0.2,27c0,2.6-2.4,3.6-4.1,3.6c-1.6,0-0.8-1.7-4.1-2.5
				c-0.8-0.2-0.7-1.3,0.1-1.3c0.4,0,2.6,0.3,3.8,0.3c1.1,0,1.5-0.4,1.6-1.6c0.2-2.8,0.1-8.6,0.1-12.6v-2.3h-8.5v1.1
				c0,0.9-0.6,1.2-1.8,1.2c-0.7,0-1.1-0.4-1.1-1.1c0-2.9,0.3-11.7-0.1-15.5c0-0.3,0.2-0.6,0.6-0.5c0.8,0.1,3,1,3.6,1.7H509.7z
				 M502.2,18.9c0,1,0,2.7,0,4h8.5v-4H502.2z M510.7,28.9v-4.4h-8.5v0l0,4.3H510.7z"/>
			<path d="M547.3,38.6c0.9-1.3,2.1-2.9,2.7-2.9c0.8,0,3.8,2.5,3.8,3.5c0,0.6-0.7,1-2.3,1h-12.9c0.2,1.1,0.4,2.3,0.4,3.5
				c0,4.6-1.7,6.8-5.5,6.8c-0.6,0-0.8-0.2-1.2-0.9c-0.4-0.6-1-1-1.5-1.1c-1-0.3-0.8-1.5,0.1-1.4c0.6,0.1,2,0.2,2.8,0.2
				c1.9,0,2.7-1,2.7-3.8c0-1.1-0.1-2.3-0.3-3.3H520c-0.5,0-0.9-0.2-0.9-0.8c0-0.6,0.4-0.8,0.9-0.8h15.7c-0.5-1.4-1.3-2.7-2.3-3.9
				c-0.8-0.9,0-2,1.1-1.2c1,0.7,1.7,1.5,2.4,2.4c2-1.7,3.5-3.5,4.5-5.2h-13.4c-0.5,0-0.9-0.2-0.9-0.8c0-0.6,0.4-0.8,0.9-0.8h13.8
				c0.7-0.8,1.3-1.4,1.7-1.4c1,0,3.2,2.1,3.2,3.1c0,0.8-1.2,1-2.5,1.1c-1.6,1.7-3.9,3.8-6.4,5.4c0.2,0.4,0.4,0.9,0.6,1.3H547.3z
				 M548.8,23.7c0.7-0.8,1.5-1.7,2-1.7c0.7,0,3.4,2.2,3.3,3.4c0,0.8-1,0.9-2.1,1.3c-1.3,1.2-2.5,2.3-3.6,3.1c-0.8,0.6-1.7,0-1.2-0.9
				c0.7-1.3,1.4-2.5,1.8-3.7h-24.5c0,0.3,0,0.6,0,1c0,3.1-1.8,5.4-3.8,5.5c-0.9,0-1.5-0.5-1.6-1.5c-0.1-1.8,2.1-2,3-4.4
				c0.4-1.1,0.2-2.5,0-3.6c-0.1-1,1-1.2,1.4-0.3c0.2,0.6,0.4,1.1,0.6,1.8H548.8z M525,17c-0.4-0.9,0.2-1.7,1.3-1.1
				c2,1,3.9,2.5,3.6,4.4c-0.2,1.1-1,1.9-2.2,1.7c-1.1-0.2-1.3-1.3-1.7-2.5C525.8,18.7,525.4,17.8,525,17z M533.4,16.1
				c-0.3-1,0.4-1.8,1.5-1c1.9,1.2,3.6,2.9,3,4.7c-0.3,1.1-1.3,1.7-2.5,1.4c-1-0.3-1-1.5-1.2-2.7C534,17.7,533.7,16.9,533.4,16.1z
				 M540.9,22.1c1.3-1.9,2.8-4.2,3.6-6.7c0.1-0.4,0.3-0.7,0.7-0.5c1.5,0.4,3.7,1.8,3.7,2.5c0,0.6-0.6,0.8-1.8,0.7
				c-1.3,1.8-3,3.3-5,4.8C541.2,23.7,540.4,23.1,540.9,22.1z"/>
			<path d="M565.9,26.4c0,2.6,0,4.9,0,5.7c0,2.7,0.1,15.3,0.1,17c0,0.9-0.5,1.4-1.7,1.4c-0.8,0-1.1-0.4-1.1-1.2
				c0-1.6,0.3-11.9,0.4-15.7c-1.5,2.7-3.4,5.4-5.9,7.5c-1,0.8-1.9,0.1-1.1-1c3.4-4.2,5.6-8.9,6.7-13.8h-5c-0.5,0-0.9-0.2-0.9-0.8
				c0-0.6,0.4-0.8,0.9-0.8h5.3c0-3.6-0.2-7.4-0.5-9.4c-0.1-0.4,0.2-0.6,0.5-0.6c2.4,0,4.5,0.2,4.5,1.2c0,0.6-0.8,1-2,1.3
				c0,1.3-0.1,4.5-0.1,7.5h1c0.8-1.1,1.6-2.3,2.1-2.3c0.7,0,2.8,2.3,2.8,3.1c0,0.6-0.8,0.8-1.5,0.8H565.9z M567.8,34.9
				c-0.3-0.8-0.7-1.5-1.1-2.3c-0.4-0.8,0.1-1.5,1-1c1.9,0.9,3.6,2.3,3.4,3.9c-0.1,1-0.8,1.6-1.7,1.5C568.4,36.9,568.2,36,567.8,34.9
				z M593.8,47.9c-1,0.4-1.5,0.8-1.8,1.3c-0.4,0.6-0.7,1-1.9,0.7c-3.9-0.8-6.9-2.5-9-5c-2.9,2.7-7.3,4.8-12.6,5.6
				c-1.2,0.2-1.4-1-0.4-1.3c5.1-1.4,9-3.6,11.5-6.2c-1.3-2.2-2.3-4.8-2.8-7.8c-0.4,0.8-1.1,1.7-1.4,2.3c-0.3,0.5-0.6,0.5-1,0.2
				c-0.3-0.4-0.6-1-1-1.4c-0.3-0.4-0.3-0.7,0.3-1.1c0.8-0.4,1.5-1.1,2.1-1.7c0.5-0.5,0.8-1,1.1-1.6c0.4-0.6,0.6-0.8,1.2-0.2
				c0.6,0.5,0.8,0.8,0.3,1.4c-0.1,0.1-0.3,0.3-0.4,0.5c0.6,3,1.7,5.5,3.2,7.4c1.7-2.3,2.7-4.9,3.3-8.4c0.1-0.6,0.3-0.9,0.7-0.8
				c1.5,0,3.8,1.3,3.8,2.1c0,0.6-0.6,0.8-1.9,0.8c-0.9,3.2-2.1,5.8-4.1,8.2c2.5,2.1,6,3.4,10.6,3.8
				C594.9,46.8,594.8,47.6,593.8,47.9z M570.9,23.1c-0.5,0-0.9-0.2-0.9-0.8c0-0.6,0.4-0.8,0.9-0.8h8.6c0-2,0-4.7-0.1-6.1
				c0-0.4,0.2-0.6,0.6-0.6c0.7,0,4.4,0.1,4.4,1.1c0,0.8-0.8,1.1-2.1,1.4v4.2h5.5c0.8-1.3,1.9-2.7,2.5-2.7c0.8,0,3.5,2.5,3.5,3.4
				c0,0.6-0.8,0.9-2.1,0.9H570.9z M576.4,24.9c1.3,0.5,3.3,1.8,3.2,2.6c0,0.6-0.8,0.7-1.9,0.5c-1,1.5-2.9,3.7-5.7,5.2
				c-1,0.6-1.7-0.2-1-1c2.1-2.2,3.5-4.3,4.6-6.9C575.7,24.9,576,24.7,576.4,24.9z M592.1,29.7c0.2,1.1-0.3,2-1.3,2.3
				c-1.1,0.2-1.8-0.9-3-2.4c-0.8-1.1-1.8-2.1-2.7-3c-0.7-0.7-0.4-1.7,0.8-1.4C588.9,25.9,591.6,27.6,592.1,29.7z"/>
		</g>
	</g>
</g>
</svg>
